<svg width="369.65798175699746" height="88.6905541622392" viewBox="0 -4 369.65798175699746 88.6905541622392" class="css-1j8o68f"><defs id="SvgjsDefs5365"></defs><g id="SvgjsG5366" featurekey="symbolFeature-0" transform="matrix(1.0857762292105637,0,0,1.0857762292105637,-12.160693560062933,-15.943538521316201)" fill="#1c5c7e"><path xmlns="http://www.w3.org/2000/svg" d="M29.5,25.5c2.5,0,4.6-2.1,4.6-4.6s-2.1-4.6-4.6-4.6c-2.5,0-4.6,2.1-4.6,4.6S27,25.5,29.5,25.5z M27,58  c0,0.7,0.6,1.3,1.3,1.3c0.7,0,1.3-0.6,1.3-1.3s-0.6-1.3-1.3-1.3C27.6,56.7,27,57.3,27,58z M36.2,31.3c1.1,0,1.9-0.9,1.9-1.9  c0-1.1-0.9-1.9-1.9-1.9c-1.1,0-1.9,0.9-1.9,1.9C34.3,30.4,35.1,31.3,36.2,31.3z M21.1,48.6c2.5,0,4.6-2.1,4.6-4.6  c0-2.5-2.1-4.6-4.6-4.6s-4.6,2.1-4.6,4.6C16.6,46.5,18.6,48.6,21.1,48.6z M14.5,37.8c1.1,0,1.9-0.9,1.9-1.9c0-1.1-0.9-1.9-1.9-1.9  c-1.1,0-1.9,0.9-1.9,1.9C12.6,37,13.4,37.8,14.5,37.8z M13.8,42c0-0.7-0.6-1.3-1.3-1.3c-0.7,0-1.3,0.6-1.3,1.3s0.6,1.3,1.3,1.3  C13.2,43.3,13.8,42.7,13.8,42z M19.9,31.2c1.8,0,3.2-1.4,3.2-3.2s-1.4-3.2-3.2-3.2c-1.8,0-3.2,1.4-3.2,3.2S18.1,31.2,19.9,31.2z   M58.8,13.6c0.7,0,1.3-0.6,1.3-1.3c0-0.7-0.6-1.3-1.3-1.3c-0.7,0-1.3,0.6-1.3,1.3C57.5,13,58.1,13.6,58.8,13.6z M23.8,57.5  c0-3.1-2.5-5.6-5.6-5.6c-3.1,0-5.6,2.5-5.6,5.6s2.5,5.6,5.6,5.6C21.3,63.1,23.8,60.6,23.8,57.5z M79.9,33.9c2.5,0,4.6-2.1,4.6-4.6  s-2.1-4.6-4.6-4.6s-4.6,2.1-4.6,4.6S77.3,33.9,79.9,33.9z M69.6,65.5c0,1.8,1.4,3.2,3.2,3.2c1.8,0,3.2-1.4,3.2-3.2s-1.4-3.2-3.2-3.2  C71,62.3,69.6,63.7,69.6,65.5z M72.8,22.9c1.8,0,3.2-1.4,3.2-3.2c0-1.8-1.4-3.2-3.2-3.2c-1.8,0-3.2,1.4-3.2,3.2  C69.6,21.5,71,22.9,72.8,22.9z M65.7,31.2c1.8,0,3.2-1.4,3.2-3.2s-1.4-3.2-3.2-3.2c-1.8,0-3.2,1.4-3.2,3.2S63.9,31.2,65.7,31.2z   M77.2,42.5c0,3.1,2.5,5.6,5.6,5.6c3.1,0,5.6-2.5,5.6-5.6s-2.5-5.6-5.6-5.6C79.7,36.9,77.2,39.4,77.2,42.5z M74,42  c0-0.7-0.6-1.3-1.3-1.3c-0.7,0-1.3,0.6-1.3,1.3s0.6,1.3,1.3,1.3C73.4,43.3,74,42.7,74,42z M64.8,16.1c1.1,0,1.9-0.9,1.9-1.9  s-0.9-1.9-1.9-1.9c-1.1,0-1.9,0.9-1.9,1.9S63.8,16.1,64.8,16.1z M70.8,37.8c1.1,0,1.9-0.9,1.9-1.9c0-1.1-0.9-1.9-1.9-1.9  s-1.9,0.9-1.9,1.9C68.9,37,69.8,37.8,70.8,37.8z M31.4,34.5c0-1.8-1.4-3.2-3.2-3.2c-1.8,0-3.2,1.4-3.2,3.2s1.4,3.2,3.2,3.2  C30,37.7,31.4,36.3,31.4,34.5z M64.8,68.7c-1.1,0-1.9,0.9-1.9,1.9c0,1.1,0.9,1.9,1.9,1.9c1.1,0,1.9-0.9,1.9-1.9  C66.7,69.6,65.9,68.7,64.8,68.7z M58.3,76.4c-3.1,0-5.6,2.5-5.6,5.6s2.5,5.6,5.6,5.6c3.1,0,5.6-2.5,5.6-5.6S61.4,76.4,58.3,76.4z   M71.5,74.5c-2.5,0-4.6,2.1-4.6,4.6s2.1,4.6,4.6,4.6c2.5,0,4.6-2.1,4.6-4.6S74,74.5,71.5,74.5z M57.5,72.5c0,0.7,0.6,1.3,1.3,1.3  c0.7,0,1.3-0.6,1.3-1.3c0-0.7-0.6-1.3-1.3-1.3C58.1,71.3,57.5,71.8,57.5,72.5z M88.5,56.7c-0.7,0-1.3,0.6-1.3,1.3s0.6,1.3,1.3,1.3  c0.7,0,1.3-0.6,1.3-1.3S89.1,56.7,88.5,56.7z M86.5,62.2c-1.1,0-1.9,0.9-1.9,1.9c0,1.1,0.9,1.9,1.9,1.9c1.1,0,1.9-0.9,1.9-1.9  C88.4,63,87.6,62.2,86.5,62.2z M56.2,25.5c2.5,0,4.6-2.1,4.6-4.6s-2.1-4.6-4.6-4.6s-4.6,2.1-4.6,4.6S53.7,25.5,56.2,25.5z   M79.9,51.4c-2.5,0-4.6,2.1-4.6,4.6c0,2.5,2.1,4.6,4.6,4.6s4.6-2.1,4.6-4.6C84.4,53.5,82.4,51.4,79.9,51.4z M21.1,66.1  c-2.5,0-4.6,2.1-4.6,4.6s2.1,4.6,4.6,4.6s4.6-2.1,4.6-4.6S23.7,66.1,21.1,66.1z M81.1,68.8c-1.8,0-3.2,1.4-3.2,3.2s1.4,3.2,3.2,3.2  c1.8,0,3.2-1.4,3.2-3.2S82.9,68.8,81.1,68.8z M30.2,62.2c-1.1,0-1.9,0.9-1.9,1.9c0,1.1,0.9,1.9,1.9,1.9s1.9-0.9,1.9-1.9  C32.1,63,31.2,62.2,30.2,62.2z M35.3,68.8c-1.8,0-3.2,1.4-3.2,3.2s1.4,3.2,3.2,3.2c1.8,0,3.2-1.4,3.2-3.2S37.1,68.8,35.3,68.8z   M36.2,83.9c-1.1,0-1.9,0.9-1.9,1.9s0.9,1.9,1.9,1.9c1.1,0,1.9-0.9,1.9-1.9S37.2,83.9,36.2,83.9z M28.2,77.1c-1.8,0-3.2,1.4-3.2,3.2  c0,1.8,1.4,3.2,3.2,3.2c1.8,0,3.2-1.4,3.2-3.2C31.4,78.5,30,77.1,28.2,77.1z M41,27.5c0,0.7,0.6,1.3,1.3,1.3c0.7,0,1.3-0.6,1.3-1.3  c0-0.7-0.6-1.3-1.3-1.3C41.5,26.2,41,26.8,41,27.5z M48.3,17.9c0-3.1-2.5-5.6-5.6-5.6c-3.1,0-5.6,2.5-5.6,5.6s2.5,5.6,5.6,5.6  C45.8,23.6,48.3,21.1,48.3,17.9z M42.2,86.4c-0.7,0-1.3,0.6-1.3,1.3c0,0.7,0.6,1.3,1.3,1.3c0.7,0,1.3-0.6,1.3-1.3  C43.5,87,42.9,86.4,42.2,86.4z M44.8,74.5c-2.5,0-4.6,2.1-4.6,4.6s2.1,4.6,4.6,4.6s4.6-2.1,4.6-4.6S47.3,74.5,44.8,74.5z"></path></g><g id="SvgjsG5367" featurekey="nameFeature-0" transform="matrix(1.292429929704048,0,0,1.292429929704048,101.15825192302457,2.8767244338261797)" fill="#111111"><path d="M9.84 40.48 c-0.76 0 -1.16 -0.04 -1.88 -0.28 c-0.8 -0.08 -1.6 -0.6 -2.16 -1.16 c-1.2 -0.68 -2.16 -2.44 -2.44 -3.72 c-0.16 -0.52 -0.28 -0.96 -0.32 -1.32 c-0.12 -0.68 -0.08 -1.28 0.12 -1.76 c0 -0.2 0.04 -0.28 0.16 -0.32 c0.04 -0.08 0.12 -0.16 0.32 -0.24 c0.16 -0.04 0.28 -0.08 0.4 -0.08 s0.2 0.04 0.24 0.08 c0.2 0.2 0.2 0.48 0 0.8 c0 0.08 0 0.12 -0.04 0.16 c-0.08 0.84 0 1.6 0.24 2.32 c0.2 0.76 0.52 1.44 0.96 2.12 c0.2 0.12 0.36 0.28 0.52 0.44 c0.16 0.2 0.32 0.36 0.44 0.56 l1.2 0.8 c0.44 0 0.8 0.04 1.12 0.16 s0.72 0.16 1.16 0.16 s1.12 -0.16 1.52 -0.4 l0.4 -0.16 l0.36 -0.12 l0.32 -0.32 l0.36 -0.32 l0.64 -0.64 c0.12 -0.28 0.2 -0.52 0.24 -0.72 s0.12 -0.4 0.24 -0.64 c0.04 -0.2 0.04 -0.4 0.04 -0.6 l-0.08 -0.56 c-0.04 -0.36 -0.12 -0.72 -0.32 -1.12 l-0.32 -0.36 c-0.72 -0.72 -1.6 -1.12 -2.48 -1.52 c-0.44 -0.16 -0.92 -0.32 -1.36 -0.52 c-0.48 -0.16 -0.96 -0.32 -1.4 -0.52 c-0.48 -0.16 -1.12 -0.4 -1.4 -0.8 c-0.2 -0.04 -0.4 -0.16 -0.6 -0.32 c-0.2 -0.12 -0.36 -0.28 -0.48 -0.44 c-0.32 -0.2 -0.56 -0.48 -0.68 -0.8 c-0.16 -0.28 -0.28 -0.6 -0.36 -0.96 c-0.2 -0.68 -0.16 -1.36 0.12 -2 c1 -2.04 2.6 -3.6 5 -3.6 c1.84 0 3.32 0.84 4.44 2.24 c0.04 0.04 0.12 0.12 0.2 0.16 l0.16 0.16 c0.12 0.12 0.16 0.28 0.16 0.52 l0.28 0.48 c0.08 0.16 0 0.36 -0.2 0.56 c-0.08 0.08 -0.16 0.12 -0.28 0.12 s-0.24 -0.08 -0.36 -0.28 c-0.2 -0.04 -0.32 -0.12 -0.36 -0.32 l-0.24 -0.36 l-0.44 -0.44 c-0.16 -0.12 -0.32 -0.28 -0.44 -0.4 l-0.36 -0.24 c-0.2 -0.12 -0.44 -0.28 -0.68 -0.4 c-0.28 -0.12 -0.56 -0.2 -0.84 -0.24 c-0.24 -0.08 -0.48 -0.12 -0.76 -0.12 l-0.36 0 c-0.24 0.08 -0.56 0.12 -0.8 0.12 c-0.12 0.04 -0.28 0.04 -0.4 0.08 c-0.24 0.2 -0.48 0.36 -0.68 0.52 s-0.4 0.32 -0.6 0.52 c-0.4 0.36 -0.72 0.8 -0.96 1.4 c-0.2 0.36 -0.28 0.72 -0.16 1 c0.04 0.16 0.12 0.32 0.2 0.48 c0.04 0.16 0.12 0.32 0.16 0.52 l0.16 0.16 c0.12 0.04 0.24 0.08 0.32 0.2 l0.08 0.12 l0.12 0.16 c0.36 0.28 0.8 0.52 1.24 0.68 c0.2 0.12 0.44 0.2 0.64 0.28 c0.2 0.12 0.44 0.2 0.64 0.32 c0.2 0.04 0.44 0.12 0.68 0.2 c0.2 0.12 0.36 0.28 0.48 0.48 c0 -0.04 0.04 -0.04 0.08 -0.04 c0.12 -0.08 0.24 -0.12 0.32 -0.12 c0.12 0 0.24 0.04 0.36 0.12 c0.12 0.12 0.2 0.2 0.28 0.24 c0.04 0.04 0.04 0.04 0.08 0.04 l0.12 0.12 c0.08 -0.04 0.16 0 0.2 0.12 l0.28 0 c0.12 0.04 0.16 0.12 0.2 0.16 c0.28 0.12 0.56 0.28 0.8 0.44 c0.2 0.16 0.4 0.4 0.52 0.72 l0 0.04 c0.32 0.04 0.52 0.16 0.64 0.32 c0.04 0.12 0.12 0.2 0.16 0.32 s0.12 0.2 0.16 0.32 c0.56 0.56 0.68 1.24 0.68 2 l-0.12 0.76 c-0.36 1.64 -1.28 2.4 -2.56 3.32 c-0.12 0.2 -0.32 0.32 -0.6 0.36 c-0.32 0.32 -0.72 0.56 -1.16 0.68 c-0.4 0.08 -0.84 0.12 -1.28 0.12 z M30.422 40.2 c-1.32 0 -2.68 -0.04 -4 -0.12 c-0.2 0 -0.4 -0.04 -0.56 -0.12 c-0.2 -0.08 -0.32 -0.24 -0.36 -0.52 c-0.04 -0.04 -0.04 -0.16 -0.04 -0.36 c-0.12 -0.76 -0.2 -1.44 -0.2 -2.04 c-0.04 -0.68 -0.04 -1.36 0 -2.04 c0.04 -0.12 0.04 -0.32 0.04 -0.6 l0 -0.56 c-0.2 -0.2 -0.24 -0.44 -0.2 -0.64 c0.04 -0.12 0.04 -0.2 0.04 -0.32 s0 -0.2 0.04 -0.32 c-0.04 -0.84 -0.04 -1.68 0 -2.52 l0 -1.24 c0 -0.4 0 -0.8 0.04 -1.24 l0 -0.48 c-0.08 -0.12 -0.12 -0.28 -0.12 -0.4 c0 -0.08 0.04 -0.24 0.08 -0.44 c0.04 -0.04 0.04 -0.12 0.08 -0.2 c0 -0.08 0 -0.16 0.04 -0.2 c0.04 -0.12 0.04 -0.28 0 -0.4 l0 -0.16 c0 -0.2 0 -0.36 -0.04 -0.48 s0.04 -0.28 0.16 -0.4 c0.16 -1.16 0.72 -1.44 1.84 -1.44 c1.12 -0.12 2.24 -0.2 3.36 -0.2 l2.68 0 c0.16 0 0.32 0 0.52 0.04 c0.16 0 0.36 0.04 0.64 0.08 l0.32 0.08 l0.32 0.08 c0.44 0.08 0.6 0.32 0.52 0.68 c-0.04 0.24 -0.12 0.36 -0.24 0.4 c-0.24 0.16 -0.8 0.2 -1.08 0.2 c-0.12 0.04 -0.32 0.04 -0.6 0.04 c-0.44 0.04 -0.84 0.04 -1.28 0.04 c-0.44 0.04 -0.84 0.04 -1.28 0.04 l-1.28 0 c-0.44 0 -0.84 0 -1.28 0.04 l-1.2 0 c-0.16 0 -0.32 0 -0.44 0.04 l0 1.08 c0 0.12 0 0.24 -0.04 0.36 c-0.04 0.52 -0.04 1 0 1.52 c0.04 0.28 0.04 0.52 0.04 0.8 l-0.08 0.8 c0 0.16 0 0.28 0.04 0.32 c0.12 0.12 0.16 0.32 0.16 0.52 l-0.12 0.6 c-0.04 0.28 0 0.48 0.12 0.56 c0.12 0.12 0.28 0.16 0.48 0.16 l0.16 0 c0.24 -0.04 0.48 -0.04 0.72 -0.08 s0.48 -0.04 0.72 -0.08 c0.2 -0.04 0.44 -0.04 0.68 -0.08 l0.72 0 c0.68 0 1.28 0.04 1.8 0.16 c0.16 0.04 0.28 0.2 0.32 0.48 s-0.04 0.44 -0.2 0.52 c-0.72 0.4 -1.88 0.44 -2.68 0.44 l-2.52 0 c-0.04 0.04 -0.12 0.04 -0.16 0.04 c-0.04 0.04 -0.12 0.04 -0.16 0.08 c0 2 0 3.92 -0.08 5.92 l1.92 0 c0.28 0.04 0.6 0.04 0.92 0.04 l0.92 0 c0.56 -0.08 1.12 -0.16 1.72 -0.16 l0.56 0 c0.36 0 0.76 0.04 1.12 0.12 l1.16 0.2 c0.2 0.08 0.24 0.28 0.2 0.56 c-0.08 0.48 -0.6 0.52 -1 0.52 c-1.32 0.24 -2.64 0.28 -3.96 0.28 z M26.582 24.48 l0.04 -0.04 l-0.04 0 l0 0.04 z M45.324 40.4 c-0.12 -0.04 -0.2 -0.12 -0.24 -0.24 s-0.04 -0.28 0.04 -0.44 c0.2 -1.08 0.8 -2.72 1.88 -4.84 l3.84 -7.76 l0.6 -1.52 c0.2 -0.52 0.44 -1 0.72 -1.44 c0.08 -0.36 0.24 -0.6 0.52 -0.8 c0.24 -0.24 0.48 -0.36 0.68 -0.36 c0.44 0 0.64 0.24 0.68 0.72 c0.04 0.2 0.12 0.44 0.2 0.64 c0.16 0.4 0.28 0.84 0.36 1.28 l0.16 0.64 c0.08 0.04 0.08 0.12 0.04 0.16 c0.04 0.16 0.12 0.32 0.2 0.52 l0.24 0.68 c0.16 0.56 0.32 1.08 0.52 1.52 l0.24 0.76 c0.12 0.48 0.28 1 0.36 1.48 l0.12 0.56 c0.04 0.04 0.04 0.12 0.04 0.2 c0 0.12 0.08 0.28 0.12 0.4 c0 0.08 0 0.16 0.04 0.2 c0.36 0.6 0.6 1.28 0.76 2.04 c0.08 0.36 0.2 0.72 0.32 1.08 l0.36 1.08 c0.04 0.2 0.12 0.36 0.2 0.56 c0.04 0.2 0.12 0.36 0.16 0.56 s0.12 0.4 0.16 0.6 s0.12 0.36 0.16 0.56 s0.08 0.4 0.08 0.52 c0 0.2 -0.12 0.36 -0.36 0.44 c-0.04 0.04 -0.08 0.04 -0.2 0.04 c-0.16 0 -0.28 -0.08 -0.32 -0.24 c-0.08 -0.16 -0.08 -0.32 -0.16 -0.48 c-0.36 -0.56 -0.6 -1.16 -0.76 -1.84 c-0.12 -0.28 -0.2 -0.6 -0.28 -0.92 c-0.12 -0.32 -0.2 -0.64 -0.32 -0.96 c-0.24 -0.12 -0.36 -0.28 -0.32 -0.48 c0 -0.2 -0.08 -0.36 -0.28 -0.48 l-1.88 0.12 l-1.88 0.12 c-1.24 0.08 -2.48 0.12 -3.8 0.12 c-0.08 0.04 -0.12 0.08 -0.12 0.12 c-0.04 0.24 -0.16 0.56 -0.36 1 c-0.12 0.2 -0.2 0.44 -0.28 0.68 c-0.12 0.24 -0.2 0.48 -0.32 0.72 c-0.16 0.36 -0.32 0.76 -0.52 1.16 c-0.2 0.44 -0.44 0.8 -0.72 1.12 c-0.12 0.28 -0.32 0.4 -0.68 0.4 z M50.164 33.68 l0.76 0 c0.12 0 0.28 0 0.48 -0.04 c0.52 -0.04 1.04 -0.12 1.56 -0.16 s1.04 -0.04 1.56 -0.04 c0.24 0 0.48 0.04 0.68 0.08 c-0.88 -2.32 -1.76 -4.68 -2.08 -7.12 c-0.04 -0.12 -0.12 -0.16 -0.24 -0.16 c-0.04 0.04 -0.08 0.04 -0.12 0 l-0.72 1.68 c-0.12 0.36 -0.28 0.72 -0.44 1.08 l-0.48 1.04 l-0.44 1 c-0.12 0.32 -0.28 0.6 -0.4 0.88 s-0.24 0.48 -0.32 0.64 c-0.08 0.2 -0.16 0.32 -0.2 0.4 c-0.12 0.28 -0.16 0.44 -0.12 0.52 s0.2 0.16 0.52 0.2 z M83.946 23.44 c0.24 0.24 0.32 0.4 0.24 0.52 c-0.12 0.16 -0.28 0.24 -0.52 0.28 c-0.08 0.04 -0.2 0.04 -0.36 0.04 l-0.36 0 l-4.48 0.24 c-0.2 0 -0.36 -0.08 -0.48 -0.2 l0.08 -0.08 l-0.04 0 c-0.04 0 -0.04 0.04 -0.04 0.08 c-0.64 0.04 -0.96 0.36 -0.92 1.04 c0.12 0.72 0.12 1.48 0.04 2.24 c-0.04 0.36 -0.08 0.76 -0.08 1.12 c-0.04 0.4 -0.04 0.8 0 1.16 c0.04 0.76 0.04 1.48 0.08 2.2 s0.04 1.44 0.08 2.16 s0.04 1.44 0 2.16 s-0.12 1.44 -0.16 2.2 l0 0.48 c-0.04 0.12 -0.04 0.32 -0.04 0.52 c0 0.44 -0.32 0.48 -0.68 0.48 l-0.36 -0.12 c-0.12 -0.04 -0.2 -0.16 -0.24 -0.4 c0 -0.68 0 -1.36 -0.04 -2.04 l-0.12 -2.04 c-0.04 -0.68 -0.08 -1.4 -0.04 -2.08 c0 -0.68 0.04 -1.36 0.08 -2.04 c0.04 -0.12 0.04 -0.28 0.08 -0.44 l0 -0.4 c-0.04 -0.12 -0.04 -0.28 -0.04 -0.44 l0 -2.88 c0 -0.8 0.04 -1.6 0.08 -2.4 c-0.36 -0.2 -0.72 -0.28 -1.16 -0.28 c-0.48 0 -0.92 0.04 -1.32 0.12 l-2.04 0.12 c-0.36 0.04 -0.68 0.04 -1.04 0.04 l-1.04 0 c-0.36 0 -0.64 -0.16 -0.76 -0.48 c-0.12 -0.36 0 -0.6 0.4 -0.72 c0.2 -0.12 0.44 -0.2 0.72 -0.2 l0.4 0 c0.08 0.04 0.2 0.04 0.4 0.04 c0.32 -0.12 0.68 -0.2 1.04 -0.2 l0.32 0 c0.12 0 0.2 0 0.32 0.04 s0.2 0.04 0.32 0.04 l0.32 0 c0.12 -0.16 0.28 -0.24 0.48 -0.24 l0.2 0 c0.04 0.04 0.08 0.04 0.16 0.04 l4.68 0 c0.52 0 1.08 0 1.6 -0.04 l1.56 -0.12 l0.48 0 c0.84 0 1.44 0.04 2.2 0.48 z M116.27 40.48 c-0.76 0 -1.16 -0.04 -1.88 -0.28 c-0.8 -0.08 -1.6 -0.6 -2.16 -1.16 c-1.2 -0.68 -2.16 -2.44 -2.44 -3.72 c-0.16 -0.52 -0.28 -0.96 -0.32 -1.32 c-0.12 -0.68 -0.08 -1.28 0.12 -1.76 c0 -0.2 0.04 -0.28 0.16 -0.32 c0.04 -0.08 0.12 -0.16 0.32 -0.24 c0.16 -0.04 0.28 -0.08 0.4 -0.08 s0.2 0.04 0.24 0.08 c0.2 0.2 0.2 0.48 0 0.8 c0 0.08 0 0.12 -0.04 0.16 c-0.08 0.84 0 1.6 0.24 2.32 c0.2 0.76 0.52 1.44 0.96 2.12 c0.2 0.12 0.36 0.28 0.52 0.44 c0.16 0.2 0.32 0.36 0.44 0.56 l1.2 0.8 c0.44 0 0.8 0.04 1.12 0.16 s0.72 0.16 1.16 0.16 s1.12 -0.16 1.52 -0.4 l0.4 -0.16 l0.36 -0.12 l0.32 -0.32 l0.36 -0.32 l0.64 -0.64 c0.12 -0.28 0.2 -0.52 0.24 -0.72 s0.12 -0.4 0.24 -0.64 c0.04 -0.2 0.04 -0.4 0.04 -0.6 l-0.08 -0.56 c-0.04 -0.36 -0.12 -0.72 -0.32 -1.12 l-0.32 -0.36 c-0.72 -0.72 -1.6 -1.12 -2.48 -1.52 c-0.44 -0.16 -0.92 -0.32 -1.36 -0.52 c-0.48 -0.16 -0.96 -0.32 -1.4 -0.52 c-0.48 -0.16 -1.12 -0.4 -1.4 -0.8 c-0.2 -0.04 -0.4 -0.16 -0.6 -0.32 c-0.2 -0.12 -0.36 -0.28 -0.48 -0.44 c-0.32 -0.2 -0.56 -0.48 -0.68 -0.8 c-0.16 -0.28 -0.28 -0.6 -0.36 -0.96 c-0.2 -0.68 -0.16 -1.36 0.12 -2 c1 -2.04 2.6 -3.6 5 -3.6 c1.84 0 3.32 0.84 4.44 2.24 c0.04 0.04 0.12 0.12 0.2 0.16 l0.16 0.16 c0.12 0.12 0.16 0.28 0.16 0.52 l0.28 0.48 c0.08 0.16 0 0.36 -0.2 0.56 c-0.08 0.08 -0.16 0.12 -0.28 0.12 s-0.24 -0.08 -0.36 -0.28 c-0.2 -0.04 -0.32 -0.12 -0.36 -0.32 l-0.24 -0.36 l-0.44 -0.44 c-0.16 -0.12 -0.32 -0.28 -0.44 -0.4 l-0.36 -0.24 c-0.2 -0.12 -0.44 -0.28 -0.68 -0.4 c-0.28 -0.12 -0.56 -0.2 -0.84 -0.24 c-0.24 -0.08 -0.48 -0.12 -0.76 -0.12 l-0.36 0 c-0.24 0.08 -0.56 0.12 -0.8 0.12 c-0.12 0.04 -0.28 0.04 -0.4 0.08 c-0.24 0.2 -0.48 0.36 -0.68 0.52 s-0.4 0.32 -0.6 0.52 c-0.4 0.36 -0.72 0.8 -0.96 1.4 c-0.2 0.36 -0.28 0.72 -0.16 1 c0.04 0.16 0.12 0.32 0.2 0.48 c0.04 0.16 0.12 0.32 0.16 0.52 l0.16 0.16 c0.12 0.04 0.24 0.08 0.32 0.2 l0.08 0.12 l0.12 0.16 c0.36 0.28 0.8 0.52 1.24 0.68 c0.2 0.12 0.44 0.2 0.64 0.28 c0.2 0.12 0.44 0.2 0.64 0.32 c0.2 0.04 0.44 0.12 0.68 0.2 c0.2 0.12 0.36 0.28 0.48 0.48 c0 -0.04 0.04 -0.04 0.08 -0.04 c0.12 -0.08 0.24 -0.12 0.32 -0.12 c0.12 0 0.24 0.04 0.36 0.12 c0.12 0.12 0.2 0.2 0.28 0.24 c0.04 0.04 0.04 0.04 0.08 0.04 l0.12 0.12 c0.08 -0.04 0.16 0 0.2 0.12 l0.28 0 c0.12 0.04 0.16 0.12 0.2 0.16 c0.28 0.12 0.56 0.28 0.8 0.44 c0.2 0.16 0.4 0.4 0.52 0.72 l0 0.04 c0.32 0.04 0.52 0.16 0.64 0.32 c0.04 0.12 0.12 0.2 0.16 0.32 s0.12 0.2 0.16 0.32 c0.56 0.56 0.68 1.24 0.68 2 l-0.12 0.76 c-0.36 1.64 -1.28 2.4 -2.56 3.32 c-0.12 0.2 -0.32 0.32 -0.6 0.36 c-0.32 0.32 -0.72 0.56 -1.16 0.68 c-0.4 0.08 -0.84 0.12 -1.28 0.12 z M133.892 40 c-0.32 0 -0.88 -0.28 -0.88 -0.64 l0 -0.4 c0 -0.12 0 -0.24 0.04 -0.36 c-0.16 -0.68 -0.24 -1.4 -0.24 -2.12 c-0.04 -0.36 -0.04 -0.68 -0.04 -1.04 l0 -4.08 c-0.04 -0.52 -0.04 -1 -0.08 -1.52 l-0.12 -1.48 c-0.04 -0.36 -0.04 -0.68 -0.04 -1.04 c0 -1.04 0.04 -2 0.2 -3.04 c-0.12 -0.08 -0.12 -0.16 0 -0.2 c0 -0.4 0.16 -0.76 0.48 -1.12 c0.12 -0.16 0.28 -0.24 0.44 -0.24 c0.28 0 0.56 0.2 0.76 0.56 c0.04 0.12 0.04 0.2 0.08 0.28 s0.04 0.16 0.08 0.2 l0 1.64 c0.12 0.12 0.12 0.24 0 0.36 c-0.04 0.2 -0.04 0.44 0 0.64 c0 0.28 -0.04 0.48 -0.16 0.68 c-0.04 0.12 -0.04 0.24 0 0.36 c0 0.12 0 0.28 0.04 0.4 c0.04 0.2 -0.04 0.44 -0.16 0.72 c0.12 1.08 0.16 2.12 0.12 3.2 s-0.04 2.12 0 3.2 l0 0.36 c0 0.12 0 0.28 0.04 0.4 s0.04 0.24 0.04 0.36 c-0.04 0.12 -0.04 0.24 -0.08 0.36 c0.12 0.52 0.16 1.04 0.12 1.56 c-0.04 0.28 -0.04 0.52 -0.08 0.76 s-0.04 0.48 -0.08 0.76 c-0.04 0.32 -0.2 0.48 -0.48 0.48 z M157.95399999999998 40.56 c-0.44 0 -0.68 -0.2 -0.72 -0.64 c-0.04 -0.16 -0.04 -0.32 -0.08 -0.48 s-0.04 -0.32 -0.08 -0.48 l-0.24 -0.96 c0 -0.16 0 -0.28 0.04 -0.36 c0.04 -0.12 -0.04 -0.2 -0.16 -0.24 c-0.04 -0.04 -0.08 -0.04 -0.12 -0.04 c-0.08 0 -0.16 0.04 -0.2 0.12 l-0.2 0.2 c-0.12 0.12 -0.32 0.28 -0.48 0.28 c-1.08 1.08 -2.32 1.64 -3.68 1.64 c-1 0 -2.4 -0.48 -3.24 -1.04 c-0.56 -0.28 -1.08 -0.6 -1.52 -1.04 c-0.44 -0.36 -0.84 -0.72 -1.2 -1.16 c-0.04 -0.04 -0.12 -0.16 -0.32 -0.36 c-0.44 -0.56 -0.8 -1.2 -1.08 -1.96 s-0.44 -1.48 -0.4 -2.2 l0 -0.48 c0 -0.28 0 -0.48 -0.04 -0.6 c-0.04 -0.16 0.04 -0.36 0.16 -0.56 c0 -0.56 0.12 -1.08 0.4 -1.52 c0 -0.04 0 -0.04 0.04 -0.08 c0.28 -0.68 0.64 -1.28 1.08 -1.8 c0.4 -0.52 0.84 -1.04 1.28 -1.56 l0.2 -0.24 c0.04 0 0.08 -0.04 0.12 -0.08 c0.2 -0.32 0.44 -0.48 0.8 -0.52 l0 -0.12 c0.04 -0.12 0.12 -0.16 0.32 -0.16 c0.2 -0.2 0.48 -0.4 0.84 -0.56 l1.08 -0.36 c0.72 -0.16 1.44 -0.28 2.16 -0.28 c1.12 0 2.16 0.28 3.16 0.88 l0.48 0.24 c0.36 0.2 0.68 0.4 0.92 0.64 c0.12 0.12 0.12 0.32 0 0.56 c-0.08 0.24 -0.24 0.36 -0.52 0.36 c-0.2 0 -0.36 -0.04 -0.48 -0.16 l-0.4 -0.12 c-0.12 -0.04 -0.28 -0.04 -0.4 -0.08 l-0.36 -0.12 c-0.12 -0.04 -0.24 -0.12 -0.36 -0.16 c-0.6 -0.16 -1.24 -0.28 -1.84 -0.28 c-1.92 0 -3.92 1.04 -5.12 2.56 c-0.08 0.36 -0.32 0.64 -0.68 0.8 c-0.04 0.04 -0.04 0.04 -0.04 0.08 l-0.12 0.12 c0.04 0.28 0.04 0.48 -0.08 0.6 l-0.16 0.24 c-0.08 0.12 -0.16 0.2 -0.2 0.32 c0 0.2 -0.08 0.44 -0.24 0.68 c-0.08 0.56 -0.12 1.12 -0.12 1.68 c-0.04 0.52 0.04 1.12 0.2 1.76 c0.2 0.32 0.36 0.6 0.36 0.96 l0.08 0.08 c0 0.04 0.04 0.04 0.08 0.08 c0.28 0.12 0.36 0.32 0.32 0.52 c0.12 0.12 0.2 0.28 0.32 0.4 l0.24 0.4 c0.04 0.04 0.04 0.04 0.08 0.04 l0.24 0.28 c0.48 0.44 1 0.88 1.6 1.24 c0.56 0.4 1.16 0.72 1.8 0.92 l0.36 0 c0.04 0.04 0.12 0.04 0.2 0.04 c0.8 0 1.48 -0.32 2.16 -0.68 l0.64 -0.36 c0.04 -0.2 0.16 -0.32 0.32 -0.32 c0.12 0 0.24 -0.08 0.36 -0.2 c0.04 -0.08 0.16 -0.2 0.28 -0.32 c0.08 -0.12 0.2 -0.16 0.36 -0.16 c0.12 0 0.2 0.04 0.32 0.08 c0.04 0.04 0.08 0.04 0.16 0.04 s0.16 -0.12 0.2 -0.32 c0.04 -0.12 0.04 -0.28 0.08 -0.4 c0 -0.24 0.04 -0.56 0.12 -0.8 c0 -0.12 0 -0.28 0.04 -0.4 l0.08 -0.56 c0 -0.36 0.04 -0.76 0.12 -1.12 c0 -0.2 0 -0.36 0.04 -0.56 s0 -0.36 -0.04 -0.56 c-0.08 -0.12 -0.28 -0.16 -0.56 -0.16 l-4.52 0 c-0.2 -0.04 -0.36 -0.04 -0.52 -0.04 c-0.2 0 -0.36 0 -0.56 -0.04 c-0.32 -0.04 -0.68 -0.12 -1.04 -0.24 c-0.2 -0.04 -0.32 -0.12 -0.36 -0.28 c-0.04 -0.12 0 -0.24 0.12 -0.4 l0.08 -0.08 c0.04 0 0.08 -0.04 0.12 -0.08 c0.24 -0.12 0.44 -0.24 0.56 -0.28 s0.36 -0.04 0.64 -0.04 c0.52 0.04 1.04 0.04 1.56 0.04 c0.52 0.04 1.04 0.04 1.56 0.04 c0.52 0.04 1.04 0.04 1.56 0.04 s1 0 1.52 0.04 c0.76 0.04 1.16 0.44 1.2 1.2 l0.04 1.44 c-0.04 0.28 -0.04 0.52 -0.04 0.8 l0 0.8 c0 0.56 -0.04 1.12 -0.12 1.64 c0.04 0.04 0 0.12 -0.04 0.24 l0.12 0.84 c0 0.28 0 0.52 -0.04 0.8 s-0.08 0.56 -0.08 0.84 l-0.08 0.8 c0.04 0.2 0.04 0.4 0 0.52 s-0.2 0.24 -0.44 0.28 z M170.05599999999998 40.24 c-0.2 0 -0.32 -0.08 -0.36 -0.2 c-0.08 -0.16 -0.12 -0.32 -0.12 -0.48 l0 -0.44 c-0.04 -0.16 -0.04 -0.32 -0.08 -0.44 c-0.04 -0.32 -0.04 -0.6 0.04 -0.84 c-0.16 -1.08 -0.2 -2.08 -0.2 -3.2 c0 -0.36 0 -0.72 -0.04 -1.08 c-0.04 -0.76 -0.04 -1.56 -0.04 -2.32 l0 -6.88 c0 -0.28 0.04 -0.56 0.12 -0.84 c0.04 -0.28 0.24 -0.4 0.6 -0.4 s0.56 0.12 0.68 0.4 c0.08 0.28 0.12 0.56 0.12 0.84 c-0.04 0.4 -0.04 0.8 -0.04 1.2 l0 3.56 c0.12 0.32 0.2 0.6 0.16 0.88 c-0.04 0.32 -0.04 0.64 0 0.92 l5.08 0 c1.24 -0.08 2.48 -0.16 3.72 -0.16 l0.72 0 c0.12 -0.96 0.16 -1.92 0.12 -2.88 c-0.08 -0.92 -0.04 -1.88 0.08 -2.88 l0.12 -0.6 c0.04 -0.12 0.04 -0.2 0.04 -0.32 c0 -0.08 0 -0.16 0.04 -0.28 c0.08 -0.44 0.36 -0.72 0.8 -0.76 c0.32 0 0.48 0.08 0.52 0.24 c0.04 0.12 0.04 0.2 0.04 0.28 s0 0.16 0.04 0.28 c0.04 0.04 0.04 0.08 0.04 0.16 c-0.04 0.04 -0.04 0.08 -0.04 0.16 c0.08 0.64 0.04 1.32 -0.08 2 l-0.12 0.96 c-0.04 0.32 -0.08 0.64 -0.08 1 l0 2.64 c-0.04 0.28 -0.04 0.56 -0.04 0.84 l0 0.8 c0 2.32 0 4.6 -0.08 6.88 c0 0.4 -0.16 0.6 -0.52 0.64 c-0.12 0 -0.24 -0.04 -0.36 -0.16 c-0.16 -0.36 -0.2 -0.64 -0.2 -1 c0 -0.2 0 -0.4 -0.04 -0.6 s-0.04 -0.36 -0.04 -0.56 s0 -0.36 -0.04 -0.56 c-0.04 -0.04 -0.08 -0.12 -0.08 -0.24 c-0.04 -0.24 -0.08 -0.48 -0.08 -0.72 c-0.04 -0.24 -0.04 -0.48 -0.08 -0.72 s-0.04 -0.48 0 -0.72 c0 -0.24 0.04 -0.48 0.08 -0.76 c-0.04 -0.04 -0.04 -0.08 -0.04 -0.12 c-0.12 -0.2 -0.2 -0.36 -0.16 -0.52 c0.04 -0.12 0.04 -0.28 0.04 -0.52 c0.04 -0.44 -0.12 -0.64 -0.44 -0.64 l-0.2 0 c-0.16 0.04 -0.24 0.08 -0.24 0.08 c-0.32 0.08 -0.64 0.12 -0.96 0.12 l-1.88 0 c-0.64 0 -1.28 0 -1.88 0.04 s-1.24 0.04 -1.88 0.04 c-0.64 0.04 -1.28 0.04 -1.92 0.08 l-0.08 0.36 l-0.08 0.28 c0.04 0.52 0.04 1.08 0.08 1.6 l0 1.6 c-0.04 0.52 -0.04 1.08 -0.08 1.6 l-0.12 1.6 c0 0.16 -0.04 0.32 -0.12 0.48 c-0.08 0.2 -0.24 0.28 -0.44 0.28 z M170.69599999999997 32.480000000000004 l0 -0.08 c-0.04 0.04 -0.08 0.04 -0.12 0.04 c0.04 0 0.08 0 0.12 0.04 z M207.47799999999995 23.44 c0.24 0.24 0.32 0.4 0.24 0.52 c-0.12 0.16 -0.28 0.24 -0.52 0.28 c-0.08 0.04 -0.2 0.04 -0.36 0.04 l-0.36 0 l-4.48 0.24 c-0.2 0 -0.36 -0.08 -0.48 -0.2 l0.08 -0.08 l-0.04 0 c-0.04 0 -0.04 0.04 -0.04 0.08 c-0.64 0.04 -0.96 0.36 -0.92 1.04 c0.12 0.72 0.12 1.48 0.04 2.24 c-0.04 0.36 -0.08 0.76 -0.08 1.12 c-0.04 0.4 -0.04 0.8 0 1.16 c0.04 0.76 0.04 1.48 0.08 2.2 s0.04 1.44 0.08 2.16 s0.04 1.44 0 2.16 s-0.12 1.44 -0.16 2.2 l0 0.48 c-0.04 0.12 -0.04 0.32 -0.04 0.52 c0 0.44 -0.32 0.48 -0.68 0.48 l-0.36 -0.12 c-0.12 -0.04 -0.2 -0.16 -0.24 -0.4 c0 -0.68 0 -1.36 -0.04 -2.04 l-0.12 -2.04 c-0.04 -0.68 -0.08 -1.4 -0.04 -2.08 c0 -0.68 0.04 -1.36 0.08 -2.04 c0.04 -0.12 0.04 -0.28 0.08 -0.44 l0 -0.4 c-0.04 -0.12 -0.04 -0.28 -0.04 -0.44 l0 -2.88 c0 -0.8 0.04 -1.6 0.08 -2.4 c-0.36 -0.2 -0.72 -0.28 -1.16 -0.28 c-0.48 0 -0.92 0.04 -1.32 0.12 l-2.04 0.12 c-0.36 0.04 -0.68 0.04 -1.04 0.04 l-1.04 0 c-0.36 0 -0.64 -0.16 -0.76 -0.48 c-0.12 -0.36 0 -0.6 0.4 -0.72 c0.2 -0.12 0.44 -0.2 0.72 -0.2 l0.4 0 c0.08 0.04 0.2 0.04 0.4 0.04 c0.32 -0.12 0.68 -0.2 1.04 -0.2 l0.32 0 c0.12 0 0.2 0 0.32 0.04 s0.2 0.04 0.32 0.04 l0.32 0 c0.12 -0.16 0.28 -0.24 0.48 -0.24 l0.2 0 c0.04 0.04 0.08 0.04 0.16 0.04 l4.68 0 c0.52 0 1.08 0 1.6 -0.04 l1.56 -0.12 l0.48 0 c0.84 0 1.44 0.04 2.2 0.48 z"></path></g></svg>